<?xml version="1.0" encoding="UTF-8"?>
<!DOCTYPE svg PUBLIC "-//W3C//DTD SVG 1.1//EN" "http://www.w3.org/Graphics/SVG/1.1/DTD/svg11.dtd">
<!-- Creator: CorelDRAW -->
<svg xmlns="http://www.w3.org/2000/svg" xml:space="preserve" width="50px" height="50px" version="1.1" style="shape-rendering:geometricPrecision; text-rendering:geometricPrecision; image-rendering:optimizeQuality; fill-rule:evenodd; clip-rule:evenodd"
viewBox="0 0 2.48 2.48"
 xmlns:xlink="http://www.w3.org/1999/xlink"
 xmlns:xodm="http://www.corel.com/coreldraw/odm/2003">
 <defs>
  <style type="text/css">
   <![CDATA[
    .fil1 {fill:none}
    .fil0 {fill:black;fill-rule:nonzero}
   ]]>
  </style>
 </defs>
 <g id="Слой_x0020_1">
  <metadata id="CorelCorpID_0Corel-Layer"/>
  <path class="fil0" d="M1.95 2.42c0,0 0,0 0,0 -0.02,0 -0.03,0 -0.05,-0.01l-0.66 -0.35 -0.67 0.35c-0.01,0.01 -0.02,0.01 -0.04,0.01 -0.05,0 -0.09,-0.04 -0.09,-0.09 0,-0.01 0,-0.01 0,-0.02l0.13 -0.74 -0.54 -0.52c-0.02,-0.02 -0.03,-0.04 -0.03,-0.07 0,-0.04 0.03,-0.08 0.08,-0.09l0.74 -0.11 0.34 -0.67c0.01,-0.03 0.04,-0.05 0.08,-0.05 0.03,0 0.07,0.02 0.08,0.05l0.34 0.67 0.74 0.11c0.04,0.01 0.08,0.05 0.08,0.09 0,0.03 -0.01,0.05 -0.03,0.07l-0.54 0.52 0.13 0.74c0,0.01 0,0.01 0,0.02 0,0.05 -0.04,0.09 -0.09,0.09l0 0zm-1.65 -1.37l0.43 0.42c0.02,0.02 0.03,0.05 0.03,0.07 0,0.01 0,0.01 0,0.02l-0.1 0.6 0.54 -0.29c0.01,0 0.02,-0.01 0.04,-0.01 0.01,0 0.03,0.01 0.04,0.01l0.54 0.29 -0.1 -0.6c0,-0.01 0,-0.01 0,-0.02 0,-0.03 0.01,-0.05 0.03,-0.07l0.43 -0.42 -0.6 -0.09c-0.03,0 -0.06,-0.02 -0.07,-0.05l-0.27 -0.55 -0.27 0.55c-0.01,0.03 -0.04,0.05 -0.07,0.05l-0.6 0.09z"/>
  <rect class="fil1" width="2.48" height="2.48"/>
 </g>
</svg>
