<?xml version="1.0" encoding="UTF-8"?>
<!DOCTYPE svg PUBLIC "-//W3C//DTD SVG 1.1//EN" "http://www.w3.org/Graphics/SVG/1.1/DTD/svg11.dtd">
<!-- Creator: CorelDRAW -->
<svg xmlns="http://www.w3.org/2000/svg" xml:space="preserve" width="104px" height="104px" version="1.1" style="shape-rendering:geometricPrecision; text-rendering:geometricPrecision; image-rendering:optimizeQuality; fill-rule:evenodd; clip-rule:evenodd"
viewBox="0 0 6.36 6.36"
 xmlns:xlink="http://www.w3.org/1999/xlink"
 xmlns:xodm="http://www.corel.com/coreldraw/odm/2003">
 <defs>
  <style type="text/css">
   <![CDATA[
    .str0 {stroke:black;stroke-width:0.4;stroke-linecap:round;stroke-linejoin:round;stroke-miterlimit:22.9256}
    .str2 {stroke:black;stroke-width:0.4;stroke-linecap:round;stroke-linejoin:round;stroke-miterlimit:22.9256}
    .str1 {stroke:black;stroke-width:0.4;stroke-linecap:round;stroke-linejoin:round;stroke-miterlimit:22.9256}
    .fil0 {fill:none}
   ]]>
  </style>
 </defs>
 <g id="Слой_x0020_1">
  <metadata id="CorelCorpID_0Corel-Layer"/>
  <g id="_1853044146448">
   <rect class="fil0" width="6.36" height="6.36"/>
   <g>
    <path class="fil0 str0" d="M4.57 4.57l-2.84 0 -0.69 -3.81c-0.02,-0.09 -0.1,-0.16 -0.19,-0.16l-0.45 0"/>
   </g>
   <g>
    <path class="fil0 str1" d="M2.48 5.07c0,-0.28 -0.22,-0.5 -0.49,-0.5 -0.28,0 -0.5,0.22 -0.5,0.5 0,0.27 0.22,0.49 0.5,0.49 0.27,0 0.49,-0.22 0.49,-0.49z"/>
   </g>
   <g>
    <path class="fil0 str2" d="M5.07 5.07c0,-0.28 -0.23,-0.5 -0.5,-0.5 -0.28,0 -0.5,0.22 -0.5,0.5 0,0.27 0.22,0.49 0.5,0.49 0.27,0 0.5,-0.22 0.5,-0.49z"/>
   </g>
   <g>
    <path class="fil0 str0" d="M1.55 3.58l3.12 0c0,0 0,0 0,0 0.19,0 0.36,-0.14 0.39,-0.33l0.3 -1.66 -4.17 0"/>
   </g>
  </g>
 </g>
</svg>
