<svg width="39" height="39" viewBox="0 0 39 39" fill="none" xmlns="http://www.w3.org/2000/svg">
<path fill-rule="evenodd" clip-rule="evenodd" d="M15.9578 6.38623H22.3601C28.3951 6.38623 31.4127 6.38623 33.2886 8.25741C34.5819 9.54425 34.9826 11.3723 35.1087 14.3515C35.1327 14.9423 35.1455 15.2392 35.0353 15.4356C34.9235 15.632 34.4845 15.8795 33.6032 16.3712C33.1067 16.648 32.6932 17.0523 32.4053 17.5423C32.1175 18.0324 31.9657 18.5905 31.9657 19.1588C31.9657 19.7272 32.1175 20.2852 32.4053 20.7753C32.6932 21.2654 33.1067 21.6697 33.6032 21.9464C34.4845 22.4398 34.9251 22.6856 35.0353 22.882C35.1455 23.0784 35.1327 23.3738 35.1071 23.9645C34.9826 26.9453 34.5803 28.7734 33.2886 30.0602C31.4143 31.9314 28.3967 31.9314 22.3601 31.9314H15.9578C9.92279 31.9314 6.90527 31.9314 5.0293 30.0602C3.73607 28.7734 3.33533 26.9453 3.20921 23.9661C3.18526 23.3754 3.17248 23.0784 3.28265 22.882C3.39441 22.6856 3.83347 22.4398 4.71477 21.9464C5.2112 21.6697 5.62472 21.2654 5.91259 20.7753C6.20046 20.2852 6.35224 19.7272 6.35224 19.1588C6.35224 18.5905 6.20046 18.0324 5.91259 17.5423C5.62472 17.0523 5.2112 16.648 4.71477 16.3712C3.83347 15.8795 3.39281 15.632 3.28265 15.4356C3.17248 15.2392 3.18526 14.9439 3.2108 14.3515C3.33533 11.3723 3.73767 9.54585 5.0293 8.25741C6.90368 6.38623 9.9212 6.38623 15.9578 6.38623ZM24.8236 13.5229C24.9348 13.634 25.0231 13.7659 25.0833 13.9111C25.1435 14.0563 25.1745 14.2119 25.1745 14.3691C25.1745 14.5263 25.1435 14.6819 25.0833 14.8271C25.0231 14.9723 24.9348 15.1042 24.8236 15.2153L15.2202 24.7947C14.9949 25.0193 14.6898 25.1453 14.3716 25.1453C14.0535 25.1453 13.7484 25.0193 13.5231 24.7947C13.4118 24.6837 13.3236 24.5518 13.2634 24.4066C13.2032 24.2614 13.1722 24.1057 13.1722 23.9485C13.1722 23.7914 13.2032 23.6357 13.2634 23.4905C13.3236 23.3453 13.4118 23.2134 13.5231 23.1024L23.1265 13.5229C23.3518 13.2984 23.6569 13.1723 23.975 13.1723C24.2931 13.1723 24.5983 13.2984 24.8236 13.5229ZM23.1744 24.7468C23.39 24.7565 23.6054 24.7223 23.8075 24.6464C24.0096 24.5706 24.1943 24.4545 24.3503 24.3053C24.5063 24.1561 24.6305 23.9768 24.7154 23.7783C24.8002 23.5798 24.8439 23.3661 24.8439 23.1502C24.8439 22.9344 24.8002 22.7207 24.7154 22.5222C24.6305 22.3237 24.5063 22.1444 24.3503 21.9952C24.1943 21.846 24.0096 21.7299 23.8075 21.6541C23.6054 21.5782 23.39 21.544 23.1744 21.5537C22.2899 21.5537 21.573 22.2689 21.573 23.1502C21.573 24.0316 22.2914 24.7468 23.1744 24.7468ZM15.1707 16.764C16.0552 16.764 16.7721 16.0487 16.7721 15.1674C16.7721 14.2861 16.0552 13.5708 15.1707 13.5708C14.9551 13.5612 14.7397 13.5953 14.5376 13.6712C14.3354 13.7471 14.1508 13.8631 13.9948 14.0123C13.8387 14.1615 13.7146 14.3408 13.6297 14.5393C13.5449 14.7378 13.5011 14.9515 13.5011 15.1674C13.5011 15.3833 13.5449 15.5969 13.6297 15.7954C13.7146 15.994 13.8387 16.1732 13.9948 16.3224C14.1508 16.4716 14.3354 16.5877 14.5376 16.6636C14.7397 16.7395 14.9551 16.7736 15.1707 16.764Z" fill="#3B82F6"/>
</svg>
