<?xml version="1.0" encoding="UTF-8"?>
<!DOCTYPE svg PUBLIC "-//W3C//DTD SVG 1.1//EN" "http://www.w3.org/Graphics/SVG/1.1/DTD/svg11.dtd">
<!-- Creator: CorelDRAW -->
<svg xmlns="http://www.w3.org/2000/svg" xml:space="preserve" width="345px" height="345px" version="1.1" style="shape-rendering:geometricPrecision; text-rendering:geometricPrecision; image-rendering:optimizeQuality; fill-rule:evenodd; clip-rule:evenodd"
viewBox="0 0 21.62 21.62"
 xmlns:xlink="http://www.w3.org/1999/xlink"
 xmlns:xodm="http://www.corel.com/coreldraw/odm/2003">
 <defs>
  <style type="text/css">
   <![CDATA[
    .fil1 {fill:#FDB308}
    .fil0 {fill:#FFDE9D}
    .fil2 {fill:#FEFEFE;fill-rule:nonzero}
   ]]>
  </style>
 </defs>
 <g id="Слой_x0020_1">
  <metadata id="CorelCorpID_0Corel-Layer"/>
  <g id="_1352251925136">
   <g>
    <path class="fil0" d="M10.81 0c5.97,0 10.81,4.84 10.81,10.81 0,5.97 -4.84,10.81 -10.81,10.81 -5.97,0 -10.81,-4.84 -10.81,-10.81 0,-5.97 4.84,-10.81 10.81,-10.81z"/>
    <path class="fil1" d="M10.81 2.32c4.69,0 8.5,3.8 8.5,8.49 0,4.69 -3.81,8.5 -8.5,8.5 -4.69,0 -8.49,-3.81 -8.49,-8.5 0,-4.69 3.8,-8.49 8.49,-8.49z"/>
   </g>
   <path class="fil2" d="M10.58 15.03c-0.44,0 -0.84,-0.05 -1.2,-0.14 -0.36,-0.09 -0.69,-0.23 -0.97,-0.4 -0.28,-0.17 -0.52,-0.37 -0.73,-0.61l1 -1.39c0.25,0.23 0.52,0.42 0.8,0.56 0.29,0.14 0.58,0.21 0.87,0.21 0.36,0 0.64,-0.06 0.86,-0.19 0.21,-0.13 0.32,-0.32 0.32,-0.58 0,-0.2 -0.05,-0.38 -0.15,-0.52 -0.11,-0.15 -0.3,-0.26 -0.59,-0.34 -0.28,-0.08 -0.71,-0.11 -1.29,-0.11l0 -1.54c0.46,0 0.81,-0.04 1.07,-0.12 0.25,-0.08 0.44,-0.18 0.54,-0.32 0.11,-0.14 0.16,-0.3 0.16,-0.49 0,-0.24 -0.07,-0.43 -0.22,-0.55 -0.14,-0.13 -0.35,-0.19 -0.62,-0.19 -0.27,0 -0.51,0.06 -0.73,0.17 -0.22,0.11 -0.45,0.27 -0.71,0.5l-1.1 -1.34c0.4,-0.33 0.82,-0.59 1.25,-0.77 0.43,-0.19 0.89,-0.28 1.39,-0.28 0.6,0 1.12,0.09 1.56,0.27 0.44,0.18 0.78,0.44 1.02,0.78 0.25,0.33 0.37,0.75 0.37,1.25 0,0.39 -0.11,0.73 -0.33,1.02 -0.22,0.29 -0.54,0.54 -0.98,0.73l0 0.06c0.31,0.09 0.58,0.22 0.81,0.4 0.24,0.17 0.42,0.39 0.56,0.65 0.13,0.25 0.2,0.55 0.2,0.89 0,0.52 -0.15,0.95 -0.44,1.31 -0.29,0.35 -0.68,0.62 -1.16,0.8 -0.47,0.19 -1,0.28 -1.56,0.28z"/>
  </g>
 </g>
</svg>
