<?xml version="1.0" encoding="UTF-8"?>
<!DOCTYPE svg PUBLIC "-//W3C//DTD SVG 1.1//EN" "http://www.w3.org/Graphics/SVG/1.1/DTD/svg11.dtd">
<!-- Creator: CorelDRAW -->
<svg xmlns="http://www.w3.org/2000/svg" xml:space="preserve" width="150px" height="150px" version="1.1" style="shape-rendering:geometricPrecision; text-rendering:geometricPrecision; image-rendering:optimizeQuality; fill-rule:evenodd; clip-rule:evenodd"
viewBox="0 0 32.42 32.42"
 xmlns:xlink="http://www.w3.org/1999/xlink"
 xmlns:xodm="http://www.corel.com/coreldraw/odm/2003">
 <defs>
  <style type="text/css">
   <![CDATA[
    .fil2 {fill:#FEFEFE}
    .fil1 {fill:#FDB308}
    .fil0 {fill:#FFDE9D}
   ]]>
  </style>
 </defs>
 <g id="Слой_x0020_1">
  <metadata id="CorelCorpID_0Corel-Layer"/>
  <circle class="fil0" cx="16.21" cy="16.21" r="16.21"/>
  <circle class="fil1" cx="16.21" cy="16.21" r="12.74"/>
  <g id="_1417677086976">
   <path class="fil2" d="M10.65 20.02l-0.29 -0.04 0 2.7 -1.2 0c-0.29,0 -0.42,0.19 -0.44,0.39l0 0.08c0.02,0.2 0.16,0.41 0.38,0.41l14.22 0c0.23,0 0.37,-0.21 0.38,-0.41l0 -0.08c-0.01,-0.2 -0.15,-0.39 -0.44,-0.39l-1.2 0 0 -2.69c-0.45,0.05 -0.4,0.05 -0.9,-0.09 -0.19,-0.05 -0.37,-0.11 -0.57,-0.17 -1.33,-0.39 -1.5,-0.28 -2.8,0.08 -1.69,0.47 -2.27,0.27 -3.86,-0.21 -1.41,-0.42 -2.69,0.5 -3.28,0.42z"/>
   <path class="fil2" d="M9.98 17.47l0 1.08c0,0.41 0.35,0.59 0.76,0.59 0.13,0 0.86,-0.23 1.04,-0.28 0.76,-0.23 0.76,-0.22 1.54,-0.22 0.87,0 1.81,0.56 2.66,0.56 0.98,0 0.85,-0.02 1.79,-0.28 0.92,-0.26 0.82,-0.28 1.78,-0.28 0.84,0 1.63,0.5 2.28,0.5 0.31,0 0.61,-0.27 0.61,-0.59l0 -1.08c0,-0.46 -0.38,-0.73 -0.85,-0.73l-10.76 0c-0.46,0 -0.85,0.27 -0.85,0.73z"/>
   <path class="fil2" d="M15.3 12.7l0 2.96c0,0.06 0.03,0.08 0.09,0.08l1.64 0c0.07,0 0.09,-0.02 0.09,-0.08l0 -2.96c0,-0.71 -0.42,-0.55 -1.41,-0.55 -0.31,0 -0.41,0.24 -0.41,0.55z"/>
   <path class="fil2" d="M18.84 12.58l0 3.08c0,0.06 0.03,0.08 0.09,0.08l1.7 0 0 -3.24c0,-0.18 -0.18,-0.35 -0.35,-0.35l-1.08 0c-0.2,0 -0.36,0.23 -0.36,0.43z"/>
   <path class="fil2" d="M11.79 12.5l0 3.24 1.7 0c0.07,0 0.09,-0.02 0.09,-0.08l0 -3.08c0,-0.2 -0.16,-0.43 -0.35,-0.43l-1.08 0c-0.18,0 -0.36,0.17 -0.36,0.35z"/>
   <path class="fil2" d="M15.3 10.51c0,0.99 1.35,1.24 1.73,0.38 0.2,-0.44 -0.01,-0.82 -0.24,-1.28l-0.34 -0.62c-0.08,-0.12 -0.13,-0.12 -0.27,-0.12 -0.19,0 -0.22,0.16 -0.31,0.3 -0.16,0.28 -0.57,1.05 -0.57,1.34z"/>
   <path class="fil2" d="M12.64 11.41c0.56,0 0.94,-0.4 0.94,-0.9 0,-0.36 -0.38,-0.97 -0.56,-1.32 -0.13,-0.26 -0.14,-0.32 -0.41,-0.32 -0.12,0 -0.2,0.18 -0.25,0.27 -0.32,0.58 -0.82,1.33 -0.42,1.89 0.14,0.19 0.38,0.38 0.7,0.38z"/>
   <path class="fil2" d="M18.84 10.51c0,0.35 0.2,0.65 0.48,0.8 0.63,0.36 1.56,-0.22 1.27,-1.08 -0.08,-0.24 -0.57,-1.36 -0.78,-1.36 -0.29,0 -0.3,0.1 -0.52,0.51 -0.13,0.24 -0.45,0.87 -0.45,1.13z"/>
  </g>
 </g>
</svg>
