<?xml version="1.0" encoding="UTF-8"?>
<!DOCTYPE svg PUBLIC "-//W3C//DTD SVG 1.1//EN" "http://www.w3.org/Graphics/SVG/1.1/DTD/svg11.dtd">
<!-- Creator: CorelDRAW -->
<svg xmlns="http://www.w3.org/2000/svg" xml:space="preserve" width="345px" height="345px" version="1.1" style="shape-rendering:geometricPrecision; text-rendering:geometricPrecision; image-rendering:optimizeQuality; fill-rule:evenodd; clip-rule:evenodd"
viewBox="0 0 19.02 19.02"
 xmlns:xlink="http://www.w3.org/1999/xlink"
 xmlns:xodm="http://www.corel.com/coreldraw/odm/2003">
 <defs>
  <style type="text/css">
   <![CDATA[
    .fil1 {fill:#FDB308}
    .fil0 {fill:#FFDE9D}
    .fil2 {fill:#FEFEFE;fill-rule:nonzero}
   ]]>
  </style>
 </defs>
 <g id="Слой_x0020_1">
  <metadata id="CorelCorpID_0Corel-Layer"/>
  <g id="_1352254995504">
   <g>
    <path class="fil0" d="M9.51 0c5.25,0 9.51,4.26 9.51,9.51 0,5.25 -4.26,9.51 -9.51,9.51 -5.25,0 -9.51,-4.26 -9.51,-9.51 0,-5.25 4.26,-9.51 9.51,-9.51z"/>
    <path class="fil1" d="M9.51 2.04c4.13,0 7.47,3.34 7.47,7.47 0,4.13 -3.34,7.47 -7.47,7.47 -4.13,0 -7.47,-3.34 -7.47,-7.47 0,-4.13 3.34,-7.47 7.47,-7.47z"/>
   </g>
   <path class="fil2" d="M9.8 13.09l0 -3.88c0,-0.25 0.01,-0.53 0.03,-0.85 0.02,-0.32 0.03,-0.61 0.04,-0.85l-0.04 0c-0.09,0.21 -0.19,0.43 -0.29,0.64 -0.09,0.21 -0.2,0.43 -0.3,0.65l-0.66 1.22 3.8 0 0 1.46 -5.62 0 0 -1.35 2.43 -4.2 2.42 0 0 7.16 -1.81 0z"/>
  </g>
 </g>
</svg>
