<svg width="39" height="39" viewBox="0 0 39 39" fill="none" xmlns="http://www.w3.org/2000/svg">
<path d="M2.73706 19.1587C2.73706 10.089 10.0893 2.73682 19.159 2.73682C28.2286 2.73682 35.5809 10.089 35.5809 19.1587C35.5809 28.2284 28.2286 35.5806 19.159 35.5806C10.0893 35.5806 2.73706 28.2284 2.73706 19.1587ZM19.551 20.352C21.586 20.8529 22.1956 21.5166 22.1956 22.6374C22.1956 23.802 21.4122 24.6833 19.551 24.8249V20.352ZM18.3214 17.8388C16.5807 17.4029 15.9273 16.6742 15.9273 15.6834C15.9273 14.6933 16.7545 13.7901 18.3221 13.5944L18.3214 17.8388ZM19.551 18.1323V13.5944C20.9442 13.7682 21.9233 14.5626 22.0649 15.9345H24.3284C24.2415 13.4644 22.2716 11.8318 19.551 11.6135V9.77497H18.3214V11.6135C15.579 11.8209 13.6207 13.4309 13.6207 15.8689C13.6207 18.0776 15.1116 19.3188 17.8753 19.9606L18.3214 20.0694V24.814C16.5698 24.6293 15.7425 23.6932 15.5468 22.4198H13.2943C13.3696 25.0316 15.5578 26.5876 18.3214 26.7949V28.6225H19.551V26.7949C22.3263 26.5985 24.5029 25.0863 24.5029 22.4198C24.5029 20.1023 22.936 18.9268 20.0738 18.263L19.551 18.1323Z" fill="#3B82F6"/>
</svg>
