<?xml version="1.0" encoding="UTF-8"?>
<!DOCTYPE svg PUBLIC "-//W3C//DTD SVG 1.1//EN" "http://www.w3.org/Graphics/SVG/1.1/DTD/svg11.dtd">
<!-- Creator: CorelDRAW -->
<svg xmlns="http://www.w3.org/2000/svg" xml:space="preserve" width="345px" height="345px" version="1.1" style="shape-rendering:geometricPrecision; text-rendering:geometricPrecision; image-rendering:optimizeQuality; fill-rule:evenodd; clip-rule:evenodd"
viewBox="0 0 30.73 30.73"
 xmlns:xlink="http://www.w3.org/1999/xlink"
 xmlns:xodm="http://www.corel.com/coreldraw/odm/2003">
 <defs>
  <style type="text/css">
   <![CDATA[
    .fil1 {fill:#FDB308}
    .fil0 {fill:#FFDE9D}
    .fil2 {fill:#FEFEFE;fill-rule:nonzero}
   ]]>
  </style>
 </defs>
 <g id="Слой_x0020_1">
  <metadata id="CorelCorpID_0Corel-Layer"/>
  <g id="_1352247398160">
   <g>
    <path class="fil0" d="M15.37 0c8.48,0 15.36,6.88 15.36,15.37 0,8.48 -6.88,15.36 -15.36,15.36 -8.49,0 -15.37,-6.88 -15.37,-15.36 0,-8.49 6.88,-15.37 15.37,-15.37z"/>
    <path class="fil1" d="M15.37 3.29c6.66,0 12.07,5.41 12.07,12.08 0,6.66 -5.41,12.07 -12.07,12.07 -6.67,0 -12.08,-5.41 -12.08,-12.07 0,-6.67 5.41,-12.08 12.08,-12.08z"/>
   </g>
   <path class="fil2" d="M11.52 21.14l0 -2.51 2.48 0 0 -5.98 -2.19 0 0 -1.93c0.66,-0.14 1.22,-0.29 1.68,-0.47 0.46,-0.17 0.91,-0.4 1.35,-0.66l2.29 0 0 9.04 2.08 0 0 2.51 -7.69 0z"/>
  </g>
 </g>
</svg>
