<?xml version="1.0" encoding="UTF-8"?>
<!DOCTYPE svg PUBLIC "-//W3C//DTD SVG 1.1//EN" "http://www.w3.org/Graphics/SVG/1.1/DTD/svg11.dtd">
<!-- Creator: CorelDRAW -->
<svg xmlns="http://www.w3.org/2000/svg" xml:space="preserve" width="345px" height="345px" version="1.1" style="shape-rendering:geometricPrecision; text-rendering:geometricPrecision; image-rendering:optimizeQuality; fill-rule:evenodd; clip-rule:evenodd"
viewBox="0 0 25.43 25.43"
 xmlns:xlink="http://www.w3.org/1999/xlink"
 xmlns:xodm="http://www.corel.com/coreldraw/odm/2003">
 <defs>
  <style type="text/css">
   <![CDATA[
    .fil1 {fill:#FDB308}
    .fil0 {fill:#FFDE9D}
    .fil2 {fill:#FEFEFE;fill-rule:nonzero}
   ]]>
  </style>
 </defs>
 <g id="Слой_x0020_1">
  <metadata id="CorelCorpID_0Corel-Layer"/>
  <g id="_1352249929856">
   <g>
    <path class="fil0" d="M12.72 0c7.02,0 12.71,5.69 12.71,12.72 0,7.02 -5.69,12.71 -12.71,12.71 -7.03,0 -12.72,-5.69 -12.72,-12.71 0,-7.03 5.69,-12.72 12.72,-12.72z"/>
    <path class="fil1" d="M12.72 2.72c5.51,0 9.99,4.48 9.99,10 0,5.51 -4.48,9.99 -9.99,9.99 -5.52,0 -10,-4.48 -10,-9.99 0,-5.52 4.48,-10 10,-10z"/>
   </g>
   <path class="fil2" d="M9.28 17.5l0 -1.6c0.74,-0.64 1.42,-1.24 2.03,-1.83 0.6,-0.58 1.09,-1.13 1.44,-1.63 0.36,-0.51 0.54,-0.98 0.54,-1.4 0,-0.43 -0.11,-0.75 -0.33,-0.96 -0.21,-0.2 -0.5,-0.31 -0.85,-0.31 -0.31,0 -0.59,0.1 -0.84,0.28 -0.25,0.19 -0.5,0.4 -0.73,0.63l-1.32 -1.33c0.48,-0.54 0.97,-0.94 1.47,-1.21 0.49,-0.26 1.09,-0.39 1.78,-0.39 0.65,0 1.22,0.13 1.71,0.39 0.49,0.25 0.88,0.62 1.16,1.08 0.28,0.47 0.42,1.02 0.42,1.64 0,0.56 -0.15,1.11 -0.44,1.63 -0.3,0.52 -0.68,1.03 -1.13,1.52 -0.46,0.5 -0.93,0.97 -1.41,1.44 0.24,-0.03 0.51,-0.06 0.82,-0.09 0.3,-0.02 0.56,-0.03 0.77,-0.03l1.85 0 0 2.17 -6.94 0z"/>
  </g>
 </g>
</svg>
