<?xml version="1.0" encoding="UTF-8"?>
<!DOCTYPE svg PUBLIC "-//W3C//DTD SVG 1.1//EN" "http://www.w3.org/Graphics/SVG/1.1/DTD/svg11.dtd">
<!-- Creator: CorelDRAW -->
<svg xmlns="http://www.w3.org/2000/svg" xml:space="preserve" width="150px" height="150px" version="1.1" style="shape-rendering:geometricPrecision; text-rendering:geometricPrecision; image-rendering:optimizeQuality; fill-rule:evenodd; clip-rule:evenodd"
viewBox="0 0 1097.02 1097.02"
 xmlns:xlink="http://www.w3.org/1999/xlink"
 xmlns:xodm="http://www.corel.com/coreldraw/odm/2003">
 <defs>
  <style type="text/css">
   <![CDATA[
    .fil1 {fill:#FDB308}
    .fil0 {fill:#FFDE9D}
    .fil2 {fill:#FEFEFE;fill-rule:nonzero}
   ]]>
  </style>
 </defs>
 <g id="Слой_x0020_1">
  <metadata id="CorelCorpID_0Corel-Layer"/>
  <circle class="fil0" cx="548.51" cy="548.51" r="548.51"/>
  <circle class="fil1" cx="548.51" cy="548.51" r="430.97"/>
  <path class="fil2" d="M296.88 695.26l0 41.97c0,34.65 83.65,62.91 188.72,62.91 103.31,0 188.72,-28.26 188.72,-62.91l0 -42.02c-40.49,28.65 -114.8,42.02 -188.72,42.02 -73.91,0 -148.17,-13.37 -188.72,-41.97zm314.54 -272.57c103.3,0 188.72,-28.25 188.72,-62.9 0,-34.65 -84.54,-62.91 -188.72,-62.91 -105.08,0 -188.73,28.26 -188.73,62.91 0,34.65 83.65,62.9 188.73,62.9zm-314.54 169.46l0 50.72c0,34.65 83.65,62.9 188.72,62.9 103.31,0 188.72,-28.25 188.72,-62.9l0 -50.72c-40.49,33.42 -114.9,50.72 -188.72,50.72 -73.82,0 -148.17,-17.3 -188.72,-50.72zm408.89 10.81c56.33,-11.01 94.37,-31.06 94.37,-54.45l0 -42.07c-22.86,16.22 -56.28,27.16 -94.37,33.91l0 62.61zm-220.17 -148.81c-105.07,0 -188.72,35.19 -188.72,78.63 0,43.45 83.65,78.64 188.72,78.64 103.31,0 188.72,-35.14 188.72,-78.64 0,-43.49 -85.41,-78.63 -188.72,-78.63zm215.46 55.24c59.07,-10.52 99.08,-31.45 99.08,-55.24l0 -42.07c-34.9,24.7 -94.86,37.97 -158.06,41.17 29.1,14.07 50.43,32.94 58.98,56.14z"/>
 </g>
</svg>
