<?xml version="1.0" encoding="UTF-8"?>
<!DOCTYPE svg PUBLIC "-//W3C//DTD SVG 1.1//EN" "http://www.w3.org/Graphics/SVG/1.1/DTD/svg11.dtd">
<!-- Creator: CorelDRAW -->
<svg xmlns="http://www.w3.org/2000/svg" xml:space="preserve" width="345px" height="345px" version="1.1" style="shape-rendering:geometricPrecision; text-rendering:geometricPrecision; image-rendering:optimizeQuality; fill-rule:evenodd; clip-rule:evenodd"
viewBox="0 0 30.73 30.73"
 xmlns:xlink="http://www.w3.org/1999/xlink"
 xmlns:xodm="http://www.corel.com/coreldraw/odm/2003">
 <defs>
  <style type="text/css">
   <![CDATA[
    .fil2 {fill:#FEFEFE}
    .fil1 {fill:#FDB308}
    .fil0 {fill:#FFDE9D}
   ]]>
  </style>
 </defs>
 <g id="Слой_x0020_1">
  <metadata id="CorelCorpID_0Corel-Layer"/>
  <g id="_1316782311280">
   <circle class="fil0" cx="15.37" cy="15.37" r="15.37"/>
   <circle class="fil1" cx="15.37" cy="15.37" r="12.07"/>
   <g>
    <g id="Page-1">
     <g id="_019---Star">
      <path id="Shape" class="fil2" d="M15.85 7.64l2.07 4.39c0.07,0.16 0.23,0.28 0.41,0.31l4.61 0.7c0.21,0.04 0.38,0.19 0.44,0.4 0.07,0.2 0.01,0.42 -0.14,0.57l-3.34 3.41c-0.13,0.14 -0.18,0.32 -0.15,0.51l0.79 4.81c0.04,0.21 -0.04,0.42 -0.21,0.55 -0.17,0.13 -0.39,0.15 -0.58,0.05l-4.13 -2.27c-0.16,-0.09 -0.35,-0.09 -0.51,0l-4.12 2.27c-0.19,0.1 -0.42,0.08 -0.59,-0.05 -0.17,-0.13 -0.25,-0.34 -0.2,-0.55l0.79 -4.81c0.03,-0.19 -0.03,-0.37 -0.16,-0.51l-3.34 -3.41c-0.15,-0.15 -0.2,-0.37 -0.14,-0.57 0.06,-0.21 0.23,-0.36 0.44,-0.4l4.62 -0.7c0.18,-0.03 0.33,-0.15 0.4,-0.31l2.07 -4.39c0.08,-0.19 0.28,-0.31 0.49,-0.31 0.21,0 0.4,0.12 0.48,0.31z"/>
     </g>
    </g>
   </g>
  </g>
 </g>
</svg>
