<svg width="39" height="39" viewBox="0 0 39 39" fill="none" xmlns="http://www.w3.org/2000/svg">
<path d="M16.9375 10.6875L17.7188 9.125L19.2812 8.34375L17.7188 7.5625L16.9375 6L16.1562 7.5625L14.5938 8.34375L16.1562 9.125L16.9375 10.6875ZM9.90625 13.8125L11.208 11.2085L13.8125 9.90625L11.208 8.604L9.90625 6L8.60449 8.604L6 9.90625L8.60449 11.2085L9.90625 13.8125ZM27.0938 20.0625L25.792 22.6665L23.1875 23.9687L25.792 25.271L27.0938 27.875L28.3955 25.271L31 23.9687L28.3955 22.6665L27.0938 20.0625ZM30.542 10.6011L26.3989 6.45801C26.0942 6.15234 25.6943 6 25.2944 6C24.8945 6 24.4946 6.15234 24.1895 6.45801L6.45801 24.1895C5.84766 24.7998 5.84766 25.7891 6.45801 26.3989L10.6011 30.542C10.9062 30.8472 11.3062 30.9995 11.7056 30.9995C12.1055 30.9995 12.5054 30.8472 12.8105 30.542L30.542 12.8101C31.1523 12.2007 31.1523 11.2109 30.542 10.6011ZM23.5513 15.9346L21.0654 13.4487L25.2939 9.22021L27.7798 11.7061L23.5513 15.9346Z" fill="#3B82F6"/>
</svg>
