<svg width="34" height="34" viewBox="0 0 34 34" fill="none" xmlns="http://www.w3.org/2000/svg">
<mask id="mask0_9159_79" style="mask-type:luminance" maskUnits="userSpaceOnUse" x="0" y="0" width="34" height="34">
<path d="M1.99146 12.369L1.99146 29.9313C1.99146 30.813 2.70627 31.5278 3.58803 31.5278H30.7298C31.6115 31.5278 32.3263 30.813 32.3263 29.9313V12.369C32.3263 11.4872 31.6115 10.7724 30.7298 10.7724H3.58803C2.70627 10.7724 1.99146 11.4872 1.99146 12.369Z" fill="white" stroke="white" stroke-width="3.19315" stroke-linejoin="bevel"/>
<path d="M5.18457 10.7724L23.5452 1.99121L27.5366 10.7724" stroke="white" stroke-width="3.19315" stroke-linecap="round" stroke-linejoin="round"/>
<path d="M8.37782 17.9573C9.25959 17.9573 9.9744 17.2425 9.9744 16.3607C9.9744 15.479 9.25959 14.7642 8.37782 14.7642C7.49606 14.7642 6.78125 15.479 6.78125 16.3607C6.78125 17.2425 7.49606 17.9573 8.37782 17.9573Z" fill="black"/>
<path d="M8.37782 22.7469C9.25959 22.7469 9.9744 22.032 9.9744 21.1503C9.9744 20.2685 9.25959 19.5537 8.37782 19.5537C7.49606 19.5537 6.78125 20.2685 6.78125 21.1503C6.78125 22.032 7.49606 22.7469 8.37782 22.7469Z" fill="black"/>
<path d="M8.37782 27.5364C9.25959 27.5364 9.9744 26.8216 9.9744 25.9398C9.9744 25.0581 9.25959 24.3433 8.37782 24.3433C7.49606 24.3433 6.78125 25.0581 6.78125 25.9398C6.78125 26.8216 7.49606 27.5364 8.37782 27.5364Z" fill="black"/>
<path d="M14.7639 25.9398H17.9571L26.7382 16.3604M17.1588 21.1501H21.9485" stroke="black" stroke-width="3.19315" stroke-linecap="round" stroke-linejoin="round"/>
</mask>
<g mask="url(#mask0_9159_79)">
<path d="M-2 -2H36.3178V36.3178H-2V-2Z" fill="#3B82F6"/>
</g>
</svg>
