<?xml version="1.0" encoding="UTF-8"?>
<!DOCTYPE svg PUBLIC "-//W3C//DTD SVG 1.1//EN" "http://www.w3.org/Graphics/SVG/1.1/DTD/svg11.dtd">
<!-- Creator: CorelDRAW -->
<svg xmlns="http://www.w3.org/2000/svg" xml:space="preserve" width="1000px" height="200px" version="1.1" style="shape-rendering:geometricPrecision; text-rendering:geometricPrecision; image-rendering:optimizeQuality; fill-rule:evenodd; clip-rule:evenodd"
viewBox="0 0 840.18 168.18"
 xmlns:xlink="http://www.w3.org/1999/xlink"
 xmlns:xodm="http://www.corel.com/coreldraw/odm/2003">
 <defs>
  <style type="text/css">
   <![CDATA[
    .fil2 {fill:none;fill-rule:nonzero}
    .fil3 {fill:#FEFEFE;fill-rule:nonzero}
    .fil0 {fill:#3B82F6;fill-rule:nonzero}
    .fil1 {fill:white;fill-rule:nonzero}
   ]]>
  </style>
    <clipPath id="id0" style="clip-rule:nonzero">
     <path d="M33.01 127.45l102.16 0 0 -86.72 -102.16 0 0 86.72z"/>
    </clipPath>
 </defs>
 <g id="Слой_x0020_1">
  <metadata id="CorelCorpID_0Corel-Layer"/>
  <g id="_2079393481072">
   <path class="fil0" d="M16.42 0l135.34 0c9.07,0 16.42,7.35 16.42,16.42l0 135.34c0,9.07 -7.35,16.42 -16.42,16.42l-135.34 0c-9.07,0 -16.42,-7.35 -16.42,-16.42l0 -135.34c0,-9.07 7.35,-16.42 16.42,-16.42z"/>
   <g>
   </g>
   <g style="clip-path:url(#id0)">
    <g>
     <path class="fil1" d="M87.86 48.12l-17.01 68.68c-1.33,6.24 -6.78,10.65 -13.18,10.65l-18.54 0c-3.92,0 -6.79,-3.55 -6.02,-7.39l17.1 -68.68c1.25,-6.24 6.79,-10.65 13.1,-10.65l18.53 0c3.92,0 6.79,3.55 6.02,7.39z"/>
     <path class="fil1" d="M135.07 44.66l-7.07 33c-2.1,10.36 -11.28,17.75 -21.79,17.75l-14.9 0c-2.01,0 -3.54,-1.92 -3.16,-3.93l6.98 -33c2.2,-10.36 11.37,-17.75 21.88,-17.75l14.91 0c2.1,0 3.63,1.92 3.15,3.93z"/>
    </g>
   </g>
   <polygon class="fil2" points="33.01,127.45 135.17,127.45 135.17,40.73 33.01,40.73 "/>
   <g>
    <path class="fil3" d="M252.05 51.44c7.87,0 13.92,1.94 18.15,5.82 4.23,3.87 6.35,9.12 6.35,15.74 0,2.62 -0.39,5.28 -1.16,7.96 -0.78,2.62 -2.06,5.01 -3.85,7.16 -1.73,2.14 -4.05,3.87 -6.97,5.18 -2.86,1.31 -6.38,1.97 -10.56,1.97l-9.39 0 0 21.64 -11.71 0 0 -65.47 19.14 0zm1.87 32.38c2.15,0 3.91,-0.36 5.28,-1.07 1.43,-0.72 2.54,-1.64 3.31,-2.77 0.84,-1.14 1.43,-2.3 1.79,-3.49 0.36,-1.2 0.54,-2.27 0.54,-3.22 0,-0.84 -0.15,-1.82 -0.45,-2.95 -0.24,-1.2 -0.75,-2.36 -1.52,-3.49 -0.72,-1.19 -1.79,-2.15 -3.22,-2.86 -1.37,-0.78 -3.22,-1.17 -5.55,-1.17l-9.48 0 0 21.02 9.3 0z"/>
    <path class="fil3" d="M275.01 116.91l29.34 -68.15 0.62 0 29.34 68.15 -13.6 0 -19.59 -49.72 8.5 -5.73 -22.98 55.45 -11.63 0zm19.32 -23.97l20.93 0 4.11 9.93 -28.62 0 3.58 -9.93z"/>
    <polygon class="fil3" points="353.05,96.16 328.9,51.44 343.39,51.44 361.01,85.97 357.44,86.24 374.87,51.44 389.36,51.44 364.77,96.16 364.77,116.91 353.05,116.91 "/>
    <polygon class="fil3" points="457.77,119.42 407.87,72.73 411.36,74.52 411.63,116.91 399.73,116.91 399.73,49.03 400.18,49.03 449.19,95.54 446.59,94.55 446.33,51.44 458.13,51.44 458.13,119.42 "/>
    <path class="fil3" d="M471.6 84.18c0,-4.47 0.84,-8.74 2.51,-12.79 1.73,-4.05 4.11,-7.63 7.15,-10.73 3.1,-3.1 6.65,-5.52 10.65,-7.25 4.05,-1.79 8.37,-2.68 12.96,-2.68 4.6,0 8.92,0.89 12.97,2.68 4.06,1.73 7.64,4.15 10.74,7.25 3.1,3.1 5.51,6.68 7.24,10.73 1.79,4.05 2.68,8.35 2.68,12.88 0,4.59 -0.89,8.91 -2.68,12.97 -1.73,3.99 -4.14,7.54 -7.24,10.64 -3.1,3.04 -6.68,5.43 -10.74,7.15 -4.05,1.73 -8.37,2.6 -12.97,2.6 -4.53,0 -8.82,-0.87 -12.87,-2.6 -4.06,-1.72 -7.64,-4.11 -10.74,-7.15 -3.04,-3.04 -5.42,-6.56 -7.15,-10.55 -1.67,-4.06 -2.51,-8.44 -2.51,-13.15zm12.17 0.09c0,4.05 0.95,7.75 2.86,11.09 1.91,3.34 4.47,5.99 7.69,7.96 3.28,1.97 6.95,2.95 11,2.95 3.94,0 7.48,-0.98 10.65,-2.95 3.22,-1.97 5.75,-4.62 7.6,-7.96 1.85,-3.34 2.77,-7.04 2.77,-11.09 0,-4.18 -0.95,-7.93 -2.86,-11.27 -1.91,-3.34 -4.47,-5.99 -7.69,-7.96 -3.16,-1.97 -6.74,-2.95 -10.74,-2.95 -4.05,0 -7.69,0.98 -10.91,2.95 -3.16,1.97 -5.69,4.62 -7.6,7.96 -1.85,3.34 -2.77,7.09 -2.77,11.27z"/>
    <path class="fil3" d="M600.71 111.64c-0.83,0.59 -2.2,1.4 -4.11,2.41 -1.91,0.96 -4.24,1.82 -6.98,2.59 -2.68,0.72 -5.66,1.05 -8.94,0.99 -5.13,-0.12 -9.72,-1.04 -13.78,-2.77 -4.05,-1.73 -7.51,-4.12 -10.37,-7.16 -2.8,-3.04 -4.95,-6.53 -6.44,-10.46 -1.49,-3.94 -2.24,-8.11 -2.24,-12.52 0,-5.01 0.75,-9.57 2.24,-13.69 1.55,-4.17 3.76,-7.75 6.62,-10.73 2.86,-3.04 6.23,-5.4 10.1,-7.07 3.94,-1.67 8.29,-2.5 13.06,-2.5 4.24,0 8.02,0.57 11.36,1.7 3.34,1.13 6.08,2.38 8.23,3.75l-4.65 11.1c-1.55,-1.14 -3.58,-2.27 -6.08,-3.4 -2.51,-1.2 -5.34,-1.79 -8.5,-1.79 -3.58,0 -6.92,0.98 -10.02,2.95 -3.04,1.91 -5.48,4.53 -7.33,7.87 -1.85,3.28 -2.77,7.01 -2.77,11.18 0,4.35 0.83,8.2 2.5,11.54 1.73,3.34 4.14,5.96 7.25,7.87 3.16,1.85 6.85,2.77 11.09,2.77 3.45,0 6.44,-0.54 8.94,-1.61 2.5,-1.13 4.47,-2.32 5.9,-3.58l4.92 10.56z"/>
    <path class="fil3" d="M662.99 111.64c-0.84,0.59 -2.21,1.4 -4.12,2.41 -1.91,0.96 -4.23,1.82 -6.98,2.59 -2.68,0.72 -5.66,1.05 -8.94,0.99 -5.13,-0.12 -9.72,-1.04 -13.77,-2.77 -4.06,-1.73 -7.52,-4.12 -10.38,-7.16 -2.8,-3.04 -4.95,-6.53 -6.44,-10.46 -1.49,-3.94 -2.23,-8.11 -2.23,-12.52 0,-5.01 0.74,-9.57 2.23,-13.69 1.56,-4.17 3.76,-7.75 6.62,-10.73 2.87,-3.04 6.23,-5.4 10.11,-7.07 3.93,-1.67 8.29,-2.5 13.06,-2.5 4.23,0 8.02,0.57 11.35,1.7 3.35,1.13 6.09,2.38 8.23,3.75l-4.65 11.1c-1.55,-1.14 -3.58,-2.27 -6.08,-3.4 -2.5,-1.2 -5.33,-1.79 -8.5,-1.79 -3.57,0 -6.91,0.98 -10.01,2.95 -3.04,1.91 -5.49,4.53 -7.34,7.87 -1.85,3.28 -2.77,7.01 -2.77,11.18 0,4.35 0.84,8.2 2.51,11.54 1.72,3.34 4.14,5.96 7.24,7.87 3.16,1.85 6.86,2.77 11.09,2.77 3.46,0 6.44,-0.54 8.94,-1.61 2.51,-1.13 4.47,-2.32 5.91,-3.58l4.92 10.56z"/>
    <polygon class="fil3" points="730.63,51.44 730.63,116.91 718.82,116.91 718.82,89.72 688.15,89.72 688.15,116.91 676.43,116.91 676.43,51.44 688.15,51.44 688.15,78.37 718.82,78.37 718.82,51.44 "/>
    <polygon class="fil3" points="748.05,51.44 759.77,51.44 759.77,116.91 748.05,116.91 "/>
    <path class="fil3" d="M773.28 84.18c0,-4.47 0.83,-8.74 2.51,-12.79 1.72,-4.05 4.11,-7.63 7.15,-10.73 3.1,-3.1 6.65,-5.52 10.64,-7.25 4.06,-1.79 8.38,-2.68 12.97,-2.68 4.59,0 8.92,0.89 12.97,2.68 4.06,1.73 7.63,4.15 10.73,7.25 3.11,3.1 5.52,6.68 7.25,10.73 1.79,4.05 2.68,8.35 2.68,12.88 0,4.59 -0.89,8.91 -2.68,12.97 -1.73,3.99 -4.14,7.54 -7.25,10.64 -3.1,3.04 -6.67,5.43 -10.73,7.15 -4.05,1.73 -8.38,2.6 -12.97,2.6 -4.53,0 -8.82,-0.87 -12.88,-2.6 -4.05,-1.72 -7.63,-4.11 -10.73,-7.15 -3.04,-3.04 -5.43,-6.56 -7.15,-10.55 -1.68,-4.06 -2.51,-8.44 -2.51,-13.15zm12.17 0.09c0,4.05 0.95,7.75 2.86,11.09 1.9,3.34 4.47,5.99 7.69,7.96 3.28,1.97 6.95,2.95 11,2.95 3.94,0 7.48,-0.98 10.64,-2.95 3.22,-1.97 5.76,-4.62 7.61,-7.96 1.85,-3.34 2.77,-7.04 2.77,-11.09 0,-4.18 -0.96,-7.93 -2.86,-11.27 -1.91,-3.34 -4.48,-5.99 -7.7,-7.96 -3.15,-1.97 -6.73,-2.95 -10.73,-2.95 -4.05,0 -7.69,0.98 -10.91,2.95 -3.16,1.97 -5.69,4.62 -7.6,7.96 -1.85,3.34 -2.77,7.09 -2.77,11.27z"/>
   </g>
  </g>
 </g>
</svg>
