<?xml version="1.0" encoding="UTF-8"?>
<!DOCTYPE svg PUBLIC "-//W3C//DTD SVG 1.1//EN" "http://www.w3.org/Graphics/SVG/1.1/DTD/svg11.dtd">
<!-- Creator: CorelDRAW -->
<svg xmlns="http://www.w3.org/2000/svg" xml:space="preserve" width="50px" height="50px" version="1.1" style="shape-rendering:geometricPrecision; text-rendering:geometricPrecision; image-rendering:optimizeQuality; fill-rule:evenodd; clip-rule:evenodd"
viewBox="0 0 2.23 2.23"
 xmlns:xlink="http://www.w3.org/1999/xlink"
 xmlns:xodm="http://www.corel.com/coreldraw/odm/2003">
 <defs>
  <style type="text/css">
   <![CDATA[
    .fil1 {fill:none}
    .fil0 {fill:black;fill-rule:nonzero}
   ]]>
  </style>
 </defs>
 <g id="Слой_x0020_1">
  <metadata id="CorelCorpID_0Corel-Layer"/>
  <g id="_2395153318784">
   <path class="fil0" d="M1.74 2.13l-1.25 0c-0.21,0 -0.39,-0.17 -0.39,-0.39l0 -1.09c0,-0.04 0.04,-0.08 0.08,-0.08l1.56 0c0.22,0 0.39,0.18 0.39,0.39l0 0.78c0,0.22 -0.17,0.39 -0.39,0.39l0 0zm-1.48 -1.4l0 1.01c0,0.13 0.1,0.23 0.23,0.23l1.25 0c0.13,0 0.23,-0.1 0.23,-0.23l0 -0.78c0,-0.13 -0.1,-0.23 -0.23,-0.23l-1.48 0z"/>
   <path class="fil0" d="M1.9 0.73c-0.05,0 -0.08,-0.04 -0.08,-0.08l0 -0.21c0,-0.01 0,-0.01 0,-0.01 0,-0.06 -0.02,-0.11 -0.06,-0.14 -0.03,-0.02 -0.06,-0.03 -0.09,-0.03 -0.02,0 -0.03,0 -0.04,0l-1.31 0.3c-0.03,0.01 -0.06,0.04 -0.06,0.08 0,0 0,0 0,0 0,0.04 -0.04,0.08 -0.08,0.08 -0.04,0 -0.08,-0.04 -0.08,-0.08 0,0 0,0 0,0 0,-0.11 0.08,-0.21 0.19,-0.23l1.3 -0.3c0.03,0 0.05,-0.01 0.08,-0.01 0.07,0 0.13,0.03 0.19,0.07 0.07,0.06 0.11,0.16 0.11,0.26 0,0 0,0 0,0.01l0 0.21c0,0.04 -0.03,0.08 -0.07,0.08z"/>
   <path class="fil0" d="M2.05 1.66l-0.54 0c-0.18,0 -0.31,-0.14 -0.31,-0.31 0,-0.17 0.13,-0.31 0.31,-0.31l0.54 0c0.05,0 0.08,0.03 0.08,0.08l0 0.47c0,0.04 -0.03,0.07 -0.08,0.07l0 0zm-0.54 -0.46c-0.09,0 -0.16,0.07 -0.16,0.15 0,0.09 0.07,0.16 0.16,0.16l0.46 0 0 -0.31 -0.46 0z"/>
  </g>
  <rect class="fil1" width="2.23" height="2.23"/>
 </g>
</svg>
